<?xml version="1.0" encoding="UTF-8" standalone="no"?>
<svg
   width="308.833"
   height="58.292"
   viewBox="0 0 81.712 15.423"
   version="1.1"
   id="svg2"
   sodipodi:docname="logo.svg"
   inkscape:version="1.4.2 (ebf0e940d0, 2025-05-08)"
   xmlns:inkscape="http://www.inkscape.org/namespaces/inkscape"
   xmlns:sodipodi="http://sodipodi.sourceforge.net/DTD/sodipodi-0.dtd"
   xmlns="http://www.w3.org/2000/svg"
   xmlns:svg="http://www.w3.org/2000/svg">
  <defs
     id="defs2" />
  <sodipodi:namedview
     id="namedview2"
     pagecolor="#ffffff"
     bordercolor="#000000"
     borderopacity="0.25"
     inkscape:showpageshadow="2"
     inkscape:pageopacity="0.0"
     inkscape:pagecheckerboard="0"
     inkscape:deskcolor="#d1d1d1"
     inkscape:zoom="5.6568542"
     inkscape:cx="72.390057"
     inkscape:cy="79.107571"
     inkscape:window-width="2560"
     inkscape:window-height="1367"
     inkscape:window-x="0"
     inkscape:window-y="0"
     inkscape:window-maximized="1"
     inkscape:current-layer="svg2" />
  <path
     d="M22.048 4.087q-.405 0-.584.191-.169.191-.169.618v.551h1.416l-.18 1.124h-1.236v4.833h-1.596V6.571h-.944V5.447h.944v-.596q0-.865.562-1.405.573-.551 1.618-.551.832 0 1.573.36l-.438 1.056q-.483-.225-.967-.225zm6.271 7.316h-1.382l-.079-.798q-.315.494-.764.742-.45.236-1.045.236-.809 0-1.236-.483-.427-.494-.427-1.371V5.447h1.596v4.08q0 .472.157.674.157.191.494.191.641 0 1.09-.775V5.447h1.596zm4.9-6.136q.787 0 1.225.483.438.472.438 1.315v4.338h-1.596V7.335q0-.483-.169-.674-.157-.202-.483-.202-.337 0-.618.214-.27.202-.528.618v4.113h-1.596V5.447h1.382l.124.753q.371-.461.809-.697.45-.236 1.011-.236zm8.339-2.191v8.328h-1.405l-.09-.73q-.629.91-1.708.91-1.101 0-1.686-.843-.573-.854-.573-2.315 0-.922.292-1.63.303-.719.854-1.124.551-.405 1.27-.405.832 0 1.45.596V2.896zm-2.731 7.316q.348 0 .618-.169.27-.18.517-.551V7.009q-.236-.281-.483-.416-.236-.146-.551-.146-.551 0-.865.483-.303.483-.303 1.495 0 1.068.27 1.517.281.45.798.45zm5.9-4.945v5.956h-1.596V5.447zm-.809-3.068q.427 0 .697.27.281.258.281.663 0 .405-.281.674-.27.258-.697.258-.427 0-.697-.258-.27-.27-.27-.674 0-.405.27-.663.27-.27.697-.27zm5.709 2.888q.787 0 1.225.483.438.472.438 1.315v4.338h-1.596V7.335q0-.483-.169-.674-.157-.202-.483-.202-.337 0-.618.214-.27.202-.528.618v4.113h-1.596V5.447h1.382l.124.753q.371-.461.809-.697.45-.236 1.011-.236zm8.507.506q-.584.225-1.719.225.562.247.832.618.27.36.27.91 0 .573-.303 1.034-.292.45-.854.708-.551.258-1.292.258-.393 0-.697-.079-.225.146-.225.393 0 .18.135.292.146.101.551.101h.91q.663 0 1.158.225.506.214.775.607.281.382.281.877 0 .91-.787 1.416-.775.517-2.248.517-1.056 0-1.675-.225-.607-.214-.854-.629-.247-.416-.247-1.045h1.427q0 .292.112.461.112.18.405.258.303.09.865.09.775 0 1.079-.191.315-.191.315-.539 0-.315-.236-.483-.236-.169-.697-.169h-.877q-.888 0-1.326-.326-.438-.337-.438-.843 0-.315.18-.607.191-.303.517-.506-.551-.303-.809-.708-.247-.416-.247-.989 0-.652.315-1.135.326-.494.899-.753.584-.27 1.326-.27.922.022 1.517-.157.596-.18 1.27-.562zm-3.147.562q-.45 0-.719.292-.258.281-.258.775 0 .506.258.798.27.292.73.292.483 0 .73-.281.247-.281.247-.832 0-1.045-.989-1.045zm4.484 3.327q.405 0 .686.281.281.281.281.674 0 .393-.281.686-.281.281-.686.281-.393 0-.674-.281-.281-.292-.281-.686 0-.393.281-.674.281-.281.674-.281zm3.731 1.146q0 .899-.281 1.472-.27.584-.753.933-.483.36-1.236.652l-.528-1.158q.438-.202.686-.405.247-.191.382-.528.135-.326.135-.865V5.447h1.596zm-.809-8.429q.427 0 .697.27.281.258.281.663 0 .405-.281.674-.27.258-.697.258-.427 0-.697-.258-.27-.27-.27-.674 0-.405.27-.663.27-.27.697-.27zm4.361 2.888q1.259 0 2.158.719l-.607.91q-.753-.472-1.483-.472-.393 0-.607.146-.214.146-.214.393 0 .18.09.303.101.124.36.236.27.112.798.27.944.258 1.405.697.461.427.461 1.18 0 .596-.348 1.034-.337.438-.922.674-.584.225-1.304.225-.753 0-1.371-.225-.618-.236-1.056-.641l.787-.877q.753.584 1.596.584.45 0 .708-.169.27-.18.27-.483 0-.236-.101-.371-.101-.135-.371-.247-.27-.124-.843-.281-.899-.247-1.337-.697-.427-.461-.427-1.135 0-.506.292-.91.292-.405.82-.629.539-.236 1.247-.236zm5.911 0q1.337 0 2.09.843.753.832.753 2.315 0 .944-.348 1.663-.337.708-.989 1.101-.641.393-1.517.393-1.337 0-2.102-.832-.753-.843-.753-2.326 0-.944.337-1.652.348-.719.989-1.113.652-.393 1.54-.393zm0 1.191q-.607 0-.91.483-.292.472-.292 1.483 0 1.011.292 1.495.303.472.899.472.596 0 .888-.472.303-.483.303-1.495 0-1.011-.292-1.483-.292-.483-.888-.483zm7.384-1.191q.787 0 1.225.483.438.472.438 1.315v4.338h-1.596V7.335q0-.483-.169-.674-.157-.202-.483-.202-.337 0-.618.214-.27.202-.528.618v4.113h-1.596V5.447h1.382l.124.753q.371-.461.809-.697.45-.236 1.011-.236z"
     fill="#1a1a1a"
     id="path1" />
  <circle
     cx="7.712"
     cy="7.711"
     r="7.711"
     fill="#1a73e8"
     id="circle2" />
  <circle
     cx="7.712"
     cy="7.711"
     r="7.711"
     fill="#1a73e8"
     id="circle1" />
  <path
     d="M3.778 7.858v-.783q.465 0 .644-.183.183-.187.183-.578v-.468q0-.575.179-.889.179-.318.483-.454.307-.135.692-.165.388-.029.798-.029v1.083q-.428 0-.578.132-.146.132-.146.512v.644q0 .198-.092.406-.088.209-.329.384-.238.172-.681.282-.443.106-1.153.106zm2.979 3.257q-.41 0-.798-.029-.384-.029-.692-.165-.304-.135-.483-.454-.179-.315-.179-.889v-.468q0-.392-.183-.575-.179-.187-.644-.187v-.783q.71 0 1.153.11.443.106.681.282.242.172.329.381.092.209.092.406v.644q0 .381.146.512.15.132.578.132zM3.778 8.348V7.074h1.318v1.274zm7.774-.49q-.706 0-1.153-.106-.443-.11-.684-.282-.238-.176-.329-.384-.088-.209-.088-.406v-.644q0-.381-.15-.512-.146-.132-.575-.132V4.307q.414 0 .798.029.384.029.688.165.307.135.487.454.179.315.179.889v.468q0 .392.179.578.183.183.648.183zm-2.979 3.257v-1.083q.428 0 .575-.132.15-.132.15-.512v-.644q0-.198.088-.406.092-.209.329-.381.242-.176.684-.282.447-.11 1.153-.11v.783q-.465 0-.648.187-.179.183-.179.575v.468q0 .575-.179.889-.179.318-.487.454-.304.135-.688.165-.384.029-.798.029zm2.979-2.767h-1.318V7.074h1.318z"
     fill="#fff"
     id="path2" />
</svg>
